<svg width="27" height="29" viewBox="0 0 27 29" fill="none" xmlns="http://www.w3.org/2000/svg">
<path d="M1 23V28H11V23L6 18C6 18 3.5497 18.8268 2.5 20C1.62659 20.9762 1 23 1 23Z" stroke="black" stroke-width="0.3"/>
<path d="M16 23V28H26V23C26 23 24.7787 20.5892 23.5 19.5C22.6333 18.7617 21 18 21 18L16 23Z" stroke="black" stroke-width="0.3"/>
<path d="M19 17.5L13.5 23L8 17.5V15H11V17.5H16V15H19V17.5Z" stroke="black" stroke-width="0.3"/>
<path d="M18.0842 4H8.08419V7C8.08419 7.78105 7.89476 9.74227 8.08419 10.5C8.48604 12.1074 9.56128 12.8473 11.0842 13.5C12.6994 14.1923 14.0183 14.2977 15.5842 13.5C16.943 12.8077 17.7349 11.9845 18.0842 10.5C18.2631 9.73971 18.0842 7.78105 18.0842 7V4Z" stroke="black" stroke-width="0.3"/>
<path d="M19.5 2.5H6V1H21V8H19.5V2.5Z" stroke="black" stroke-width="0.3"/>
</svg>
