<svg width="22" height="22" viewBox="0 0 22 22" fill="none" xmlns="http://www.w3.org/2000/svg">
<path d="M21 22H0.999986C0.999986 22 0.830553 20.7625 0.999986 20C1.18942 19.1476 1.46387 18.6893 1.99999 18C2.33906 17.5641 2.56404 17.3391 2.99999 17C3.68928 16.4639 4.19735 16.344 4.99999 16C6.13508 15.5135 6.76868 15.0947 7.99999 15C8.38936 14.9701 8.99999 15 8.99999 15L9.99999 16C10.3905 16.3905 10.4477 17 11 17C11.5523 17 11.6095 16.3905 12 16L13 15C13 15 13.6106 14.9701 14 15C15.2313 15.0947 15.8649 15.5135 17 16C17.8026 16.344 18.3107 16.4639 19 17C19.4359 17.3391 19.6609 17.5641 20 18C20.5361 18.6893 20.8106 19.1476 21 20C21.1694 20.7625 21 22 21 22Z" fill="#FC8E77"/>
<path d="M9.99999 14C10.359 14.2485 10.5634 14.5 11 14.5C11.4366 14.5 11.641 14.2485 12 14C12.4541 13.6856 12.6609 13.4359 13 13C13.5361 12.3107 13.8106 11.8524 14 11C14.1694 10.2376 14 9 14 9C14 9 14.0634 10 14.5 10C14.9366 10 15 9 15 9V8C15 8 15.2761 7.27614 15 7C14.7238 6.72386 14 7 14 7V6H7.99999V7C7.99999 7 7.27613 6.72386 6.99999 7C6.72385 7.27614 6.99999 8 6.99999 8V9C6.99999 9 7.06337 10 7.49999 10C7.93661 10 7.99999 9 7.99999 9C7.99999 9 7.83055 10.2376 7.99999 11C8.18942 11.8524 8.46387 12.3107 8.99999 13C9.33906 13.4359 9.5459 13.6856 9.99999 14Z" stroke="black" stroke-width="0.3"/>
<path d="M13 4C13 4 12.4229 4.64477 12 5C11.4609 5.45283 11.1351 5.69624 10.5 6C9.94296 6.26641 9 6.5 9 6.5H8V7.5L7.5 6.5H7V5.5V5V4C7.09472 3.57378 7.5 3 7.5 3L8 2.5L8.5 2L9 1.5C9.3493 1.32535 9.61878 1.58472 10 1.5C10.4262 1.40528 10.5738 1.09472 11 1C11.3812 0.915283 11.6188 0.915283 12 1C12.4262 1.09472 13 1.5 13 1.5L14 2L14.5 2.5C14.6953 2.69526 14.8765 2.75301 15 3C15.1746 3.3493 15 3.60948 15 4V4.5V5V5.5V6L14.0591 6.94091C14.0403 7.25546 14 7.5 14 7.5V7L14.0591 6.94091C14.077 6.64044 14.0753 6.2761 14 6C13.8851 5.57877 13.5617 5.43223 13.5 5C13.4724 4.8067 13.5 4.5 13.5 4.5L13 4Z" fill="#082A44"/>
<path d="M13 4C13 4 12.4229 4.64477 12 5C11.4609 5.45283 11.1351 5.69624 10.5 6C9.94296 6.26641 9 6.5 9 6.5H8V7.5L7.5 6.5H7C7 6.5 7 5.89052 7 5.5C7 5.30474 7 5 7 5V4C7.09472 3.57378 7.5 3 7.5 3L8 2.5C8.19526 2.30474 8.5 2 8.5 2L9 1.5C9.3493 1.32535 9.61878 1.58472 10 1.5C10.4262 1.40528 10.5738 1.09472 11 1C11.3812 0.915283 11.6188 0.915283 12 1C12.4262 1.09472 13 1.5 13 1.5L14 2C14 2 14.3047 2.30474 14.5 2.5C14.6953 2.69526 14.8765 2.75301 15 3C15.1746 3.3493 15 3.60948 15 4C15 4.19526 15 4.5 15 4.5V5C15 5.19526 15 5.5 15 5.5V6L14 7V7.5C14 7.5 14.1541 6.56515 14 6C13.8851 5.57877 13.5617 5.43223 13.5 5C13.4724 4.8067 13.5 4.5 13.5 4.5L13 4Z" stroke="#082A44" stroke-width="0.3"/>
<path d="M14 6L11 6" stroke="white" stroke-width="0.3"/>
</svg>
