<svg width="468" height="344" viewBox="0 0 234 172" fill="none" xmlns="http://www.w3.org/2000/svg" xmlns:xlink="http://www.w3.org/1999/xlink">
<path d="M205.5 71.3023C216.019 66.1221 234 71.3023 234 71.3023V171H88C88 171 90.1696 163.089 92.5 158.894C97.7025 149.528 104.031 150.078 111.5 144.651C120.99 137.756 125.928 132.508 136 127.56C148.201 121.567 157.494 128.616 168.5 119.015C177.585 111.089 186.5 89.8176 186.5 89.8176C186.5 89.8176 197.003 75.4869 205.5 71.3023Z" fill="#FC8E77" stroke="#FC8E77"/>
<path d="M154.057 134.723C153.915 146.454 171.97 141.514 175.518 152.543C177.698 159.32 175.518 171 175.518 171H1L49.0067 165.909C49.0067 165.909 54.8673 147.617 61.9967 138.542C72.2067 125.546 88.0556 131.457 96.4486 116.903C101.93 107.398 97.5856 98.2857 103.226 88.9C111.469 75.1842 124.87 79.2314 136.548 69.1705C146.585 60.5239 148.03 49.8557 159.14 43.0767C170.399 36.2065 180.37 28.6202 191.332 36.076C195.741 39.0743 198.006 41.7402 200.369 46.8953C206.264 59.7562 194.522 68.5136 191.332 82.5357C189.194 91.9376 191.739 99.2409 186.249 106.72C180.967 113.917 173.566 111.136 167.047 116.903C160.76 122.464 154.165 125.718 154.057 134.723Z" fill="#FED2C7" stroke="#FED2C7"/>
</svg>
