<svg width="27" height="27" viewBox="0 0 27 27" fill="none" xmlns="http://www.w3.org/2000/svg">
<path d="M13.5 6.5V26C13.5 26 14.9101 24.3477 16 23.5C17.7232 22.1597 21 21 21 21V1C21 1 17.6599 2.08203 16 3.5C14.8404 4.49055 13.5 6.5 13.5 6.5Z" stroke="black" stroke-width="0.3"/>
<path d="M21 22.5C17.811 23.0265 13.5 26 13.5 26L16 23.5L21 21V2.5H26V22.5C26 22.5 22.9265 22.1819 21 22.5Z" stroke="black" stroke-width="0.3"/>
<path d="M13.5 6.5V26C13.5 26 12.0899 24.3477 11 23.5C9.27677 22.1597 6 21 6 21V1C6 1 9.3401 2.08203 11 3.5C12.1596 4.49055 13.5 6.5 13.5 6.5Z" stroke="black" stroke-width="0.3"/>
<path d="M6 22.5C9.189 23.0265 13.5 26 13.5 26L11 23.5L6 21V2.5H1V22.5C1 22.5 4.07346 22.1819 6 22.5Z" stroke="black" stroke-width="0.3"/>
</svg>
