<svg width="15" height="19" viewBox="0 0 15 19" fill="none" xmlns="http://www.w3.org/2000/svg">
<mask id="mask0_8_45" style="mask-type:alpha" maskUnits="userSpaceOnUse" x="0" y="0" width="15" height="15">
<circle cx="7.5" cy="7.5" r="7.35" stroke="#082A44" stroke-width="0.3"/>
</mask>
<g mask="url(#mask0_8_45)">
<rect x="-2.39951" y="15.0355" width="22.8715" height="9.72665" transform="rotate(-45 -2.39951 15.0355)" fill="#082A44"/>
</g>
<path d="M8 17H6V18H4V19H10V18H8V17Z" fill="#082A44"/>
<line x1="7.15" y1="15" x2="7.15" y2="17" stroke="#082A44" stroke-width="0.3"/>
<circle cx="7.5" cy="7.5" r="6.35" fill="#FC8E77" stroke="#082A44" stroke-width="0.3"/>
<path d="M11.4528 1.46039L11.0472 2.03961" stroke="#082A44" stroke-width="0.3"/>
<path d="M1.46039 11.4528L2.03961 11.0472" stroke="#082A44" stroke-width="0.3"/>
<path d="M4.00002 6.21787C4.00002 6.21787 4.15898 5.52034 4.50002 5.50001C4.7183 5.48699 5.00002 5.75207 5.00002 5.75207C5.00002 5.75207 5.24302 6.14598 5.50002 6.21788C5.65078 6.26005 5.74646 6.19214 5.90088 6.21787C6.15599 6.26038 6.28266 6.35985 6.50002 6.5C6.79195 6.68824 7.15007 7.10712 7.15007 7.10712C7.15007 7.10712 7.26156 7.66961 7.15007 8C7.07749 8.21508 6.97697 8.30942 6.85365 8.5C6.72373 8.7008 6.62173 8.79413 6.50002 9C6.18577 9.53153 6.00002 10.5 6.00002 10.5C6.00002 10.5 5.97984 10.8173 5.90088 11C5.80161 11.2297 5.50002 11.5 5.50002 11.5C5.50002 11.5 5.17467 11.5873 5.00002 11.5C4.65072 11.3254 5.00002 10.5 5.00002 10.5V10V9.5C5.00002 9.5 5.05139 9.18839 5.00002 9.00001C4.83755 8.40429 3.93664 8.93662 3.50002 8.5C3.19128 8.19127 3.06177 7.93224 3.00002 7.50001C2.9724 7.30671 2.93827 7.18525 3.00002 7.00001C3.08734 6.73803 3.27777 6.66389 3.50002 6.50001C3.68047 6.36695 4.00002 6.21787 4.00002 6.21787Z" fill="white" stroke="white" stroke-width="0.3"/>
<path d="M10 2.5H11L11.5 3L12 3.5C12.1953 3.69527 12.3305 3.78203 12.5 4C12.7681 4.34465 12.8047 4.60948 13 5L13.5 6V6.5V7C13.5 7 13.262 7.41268 13 7.5C12.4142 7.69527 13.0957 6.16247 12.5 6C12.3116 5.94863 12.1915 5.96171 12 6C11.0426 6.19147 12.8372 9.00231 12 8.5C11.7632 8.35793 11.5 8 11.5 8C11.5 8 11.1904 6.63808 10.5 6.5C10.3085 6.46171 10 6.5 10 6.5C10 6.5 8.99782 5.00218 8.5 5.5C8.00218 5.99783 10.0858 6.60948 9.5 7C9.17506 7.21663 8.5 7 8.5 7H8H7.5C7.5 7 7.12349 6.74699 7 6.5C6.82535 6.15071 7.27614 5.77615 7 5.5C6.72386 5.22386 6.34929 5.67465 6 5.5C5.75301 5.37651 5.77614 5 5.5 5C5.22386 5 5 5.5 5 5.5C5 5.5 3.93825 5.43224 4 5C4.03905 4.72664 4.30474 4.69527 4.5 4.5C4.69526 4.30474 4.78202 4.16954 5 4C5.34465 3.73195 6 3.5 6 3.5C6 3.5 5.5 3.27615 5.5 3C5.5 2.72386 5.75044 2.61822 6 2.5C6.63626 2.19862 7.5 3.5 7.5 3.5H8.5L9 3L9.5 2.5H10Z" fill="white" stroke="white" stroke-width="0.3"/>
</svg>
