<svg width="35" height="35" viewBox="0 0 35 35" fill="none" xmlns="http://www.w3.org/2000/svg">
<path d="M2 0.15H33C34.0217 0.15 34.85 0.978273 34.85 2V33C34.85 34.0217 34.0217 34.85 33 34.85H2C0.978273 34.85 0.15 34.0217 0.15 33V2C0.15 0.978273 0.978273 0.15 2 0.15Z" stroke="black" stroke-width="0.3"/>
<path d="M5 25V30H15V25L10 20C10 20 7.5497 20.8268 6.5 22C5.62659 22.9762 5 25 5 25Z" stroke="black" stroke-width="0.3"/>
<path d="M20 25V30H30V25C30 25 28.7787 22.5892 27.5 21.5C26.6333 20.7617 25 20 25 20L20 25Z" stroke="black" stroke-width="0.3"/>
<path d="M23 19.5L17.5 25L12 19.5V17H15V19.5H20V17H23V19.5Z" stroke="black" stroke-width="0.3"/>
<path d="M22.0842 6H12.0842V9C12.0842 9.78105 11.8948 11.7423 12.0842 12.5C12.486 14.1074 13.5613 14.8473 15.0842 15.5C16.6994 16.1923 18.0183 16.2977 19.5842 15.5C20.943 14.8077 21.7349 13.9845 22.0842 12.5C22.2631 11.7397 22.0842 9.78105 22.0842 9V6Z" stroke="black" stroke-width="0.3"/>
<path d="M23.5 4.5H10V3H25V10H23.5V4.5Z" stroke="black" stroke-width="0.3"/>
</svg>
